<?xml version="1.0" encoding="iso-8859-1"?>
<!-- Generator: Adobe Illustrator 19.0.0, SVG Export Plug-In . SVG Version: 6.00 Build 0)  -->
<svg version="1.1" id="Layer_1" xmlns="http://www.w3.org/2000/svg" xmlns:xlink="http://www.w3.org/1999/xlink" x="0px" y="0px"
	 viewBox="0 0 512 512" style="enable-background:new 0 0 512 512;" xml:space="preserve">
<g>
	<rect x="122.24" y="212.007" style="fill:#707487;" width="54.477" height="45.189"/>
	<rect x="228.536" y="212.007" style="fill:#707487;" width="54.928" height="45.189"/>
	<rect x="334.393" y="212.007" style="fill:#707487;" width="55.367" height="45.189"/>
</g>
<path style="fill:#8F96AC;" d="M71.059,250.571C71.443,148.983,154.408,66.335,256,66.335s184.557,82.648,184.941,184.236
	l0.025,6.618h34.729l-0.036-6.679C475.017,130.04,376.478,32.028,256,32.028S36.983,130.04,36.34,250.51l-0.036,6.679h34.729
	L71.059,250.571z"/>
<path style="fill:#C7CFE2;" d="M432.969,261.175v-9.885c0-97.589-79.388-176.982-176.969-176.982S79.031,153.701,79.031,251.29
	v9.885c0,2.198-1.788,3.986-3.986,3.986H36.327v214.81h77.941V313.433c0-2.198,1.788-3.986,3.986-3.986h275.492
	c2.198,0,3.986,1.788,3.986,3.986v166.539h77.941v-214.81h-38.718C434.758,265.161,432.969,263.373,432.969,261.175z
	 M184.689,261.175c0,2.198-1.788,3.986-3.986,3.986h-62.449c-2.198,0-3.986-1.788-3.986-3.986v-53.161
	c0-2.198,1.788-3.986,3.986-3.986h62.449c2.198,0,3.986,1.788,3.986,3.986V261.175z M291.436,261.175
	c0,2.198-1.788,3.986-3.986,3.986H224.55c-2.198,0-3.986-1.788-3.986-3.986v-53.161c0-2.198,1.788-3.986,3.986-3.986h62.901
	c2.198,0,3.986,1.788,3.986,3.986V261.175z M397.732,261.175c0,2.198-1.788,3.986-3.986,3.986h-63.339
	c-2.198,0-3.986-1.788-3.986-3.986v-53.161c0-2.198,1.788-3.986,3.986-3.986h63.339c2.198,0,3.986,1.788,3.986,3.986V261.175z"/>
<g>
	<rect x="122.24" y="446.097" style="fill:#EFF2FA;" width="267.52" height="33.882"/>
	<rect x="122.24" y="402.25" style="fill:#EFF2FA;" width="267.52" height="35.875"/>
	<rect x="122.24" y="360.396" style="fill:#EFF2FA;" width="267.52" height="33.882"/>
	<rect x="122.24" y="317.426" style="fill:#EFF2FA;" width="267.52" height="34.998"/>
</g>
<path d="M393.746,197.385c5.86,0,10.63,4.757,10.63,10.63v53.161c0,5.873-4.77,10.63-10.63,10.63h-63.339
	c-5.873,0-10.63-4.757-10.63-10.63v-53.161c0-5.873,4.757-10.63,10.63-10.63H393.746z M383.116,250.546v-31.902h-42.08v31.902
	H383.116z"/>
<path d="M256,59.692c105.392,0,191.186,85.541,191.585,190.854h21.432C468.392,133.607,373.085,38.672,256,38.672
	S43.608,133.607,42.983,250.546h21.432C64.814,145.233,150.608,59.692,256,59.692z M393.746,302.803c5.86,0,10.63,4.77,10.63,10.63
	v159.895h64.654V271.805h-32.075c-5.86,0-10.63-4.757-10.63-10.63v-9.885c0-93.926-76.4-170.339-170.326-170.339
	S85.674,157.364,85.674,251.29v9.885c0,5.873-4.77,10.63-10.63,10.63H42.97v201.523h64.654V313.433c0-5.86,4.77-10.63,10.63-10.63
	L393.746,302.803L393.746,302.803z M501.37,473.328c5.86,0,10.63,4.757,10.63,10.63c0,5.86-4.77,10.63-10.63,10.63H10.63
	c-5.86,0-10.63-4.77-10.63-10.63c0-5.873,4.77-10.63,10.63-10.63h11.081V251.702c0-129.189,105.1-234.289,234.289-234.289
	s234.289,105.1,234.289,234.289v221.627H501.37z M383.116,473.328v-20.595H128.884v20.595H383.116z M383.116,431.474v-22.588
	H128.884v22.588H383.116z M383.116,387.627v-20.595H128.884v20.595H383.116z M383.116,345.773v-21.711H128.884v21.711H383.116z"/>
<path d="M287.45,197.385c5.86,0,10.63,4.757,10.63,10.63v53.161c0,5.873-4.77,10.63-10.63,10.63H224.55
	c-5.86,0-10.63-4.757-10.63-10.63v-53.161c0-5.873,4.77-10.63,10.63-10.63H287.45z M276.821,250.546v-31.902h-41.641v31.902H276.821
	z"/>
<path d="M180.703,197.385c5.873,0,10.63,4.757,10.63,10.63v53.161c0,5.873-4.757,10.63-10.63,10.63h-62.449
	c-5.86,0-10.63-4.757-10.63-10.63v-53.161c0-5.873,4.77-10.63,10.63-10.63H180.703z M170.073,250.546v-31.902h-41.19v31.902H170.073
	z"/>
<g>
</g>
<g>
</g>
<g>
</g>
<g>
</g>
<g>
</g>
<g>
</g>
<g>
</g>
<g>
</g>
<g>
</g>
<g>
</g>
<g>
</g>
<g>
</g>
<g>
</g>
<g>
</g>
<g>
</g>
</svg>
